<!-- Created with Inkscape (http://www.inkscape.org/) -->
<svg xmlns:rdf="http://www.w3.org/1999/02/22-rdf-syntax-ns#" xmlns="http://www.w3.org/2000/svg" height="75" width="75" version="1.0" xmlns:cc="http://creativecommons.org/ns#" xmlns:dc="http://purl.org/dc/elements/1.1/">
<metadata>
<rdf:RDF>
<cc:Work rdf:about="">
<dc:format>image/svg+xml</dc:format>
<dc:type rdf:resource="http://purl.org/dc/dcmitype/StillImage"/>
<dc:title/>
</cc:Work>
</rdf:RDF>
</metadata>
<path fill="#fccc0a" d="m66.062,37.5a28.562,28.562,0,0,1,-57.125,0,28.562,28.562,0,1,1,57.125,0z"/>
<g style="letter-spacing:0px;word-spacing:0px;" font-weight="bold" font-size="42.00852966px" font-style="normal" font-stretch="normal" line-height="125%" font-variant="normal" font-family="Helvetica LT" fill="#000">
<path style="text-align:center;" d="m32.623,35.819,6.1331,0c1.4281,0.000016,2.6044-0.39206,3.5287-1.1762s1.3865-1.8903,1.3865-3.3185c-0.000019-1.3726-0.46923-2.4648-1.4076-3.2768-0.93844-0.81191-2.3875-1.2179-4.3473-1.2179h-5.2934zm-5.6293-13.947,12.476,0c1.5965,0.00003,3.0178,0.22417,4.2639,0.67241,1.2461,0.4483,2.2963,1.0716,3.1505,1.8698,0.85422,0.79828,1.5123,1.7504,1.9743,2.8563,0.46192,1.106,0.69289,2.317,0.69292,3.6332-0.000026,1.6803-0.2451,3.0597-0.73523,4.1383-0.49018,1.0786-1.0572,1.9399-1.7012,2.5839-0.64401,0.644-1.2951,1.1201-1.9531,1.4281-0.65811,0.30812-1.1692,0.53226-1.5333,0.67241l6.6792,12.056h-6.5113l-5.7972-11.006h-5.3767v11.006h-5.6293z"/>
</g>
</svg>
